<?xml version="1.0" encoding="utf-8"?>
<!-- Generator: Adobe Illustrator 22.1.0, SVG Export Plug-In . SVG Version: 6.00 Build 0)  -->
<svg version="1.1" id="Layer_1" xmlns="http://www.w3.org/2000/svg" xmlns:xlink="http://www.w3.org/1999/xlink" x="0px" y="0px"
	 viewBox="0 0 313 153" style="enable-background:new 0 0 313 153;" xml:space="preserve">
<style type="text/css">
	.st0{fill:#3E3C38;}
	.st1{fill:#567BC6;}
	.st2{fill:#EE9D2E;}
	.st3{fill:#EADC3C;}
	.st4{fill:#B2B2B2;}
</style>
<g>
	<g id="PG_x26_Cia._1_">
		<path class="st0" d="M106.9,48.9c3-0.5,7.1-0.9,12.9-0.9c5.9,0,10.1,1.1,12.9,3.5c2.8,2.1,4.5,5.6,4.5,9.7c0,4.2-1.3,7.7-3.9,10
			c-3.3,3-8.1,4.5-13.7,4.5c-1.3,0-2.4-0.1-3.3-0.3v15.2h-9.5V48.9z M116.4,68.1c0.8,0.2,1.8,0.3,3.2,0.3c5.1,0,8.2-2.6,8.2-6.8
			c0-3.9-2.7-6.2-7.5-6.2c-1.9,0-3.2,0.1-3.9,0.3V68.1z"/>
		<path class="st0" d="M179.1,88.7c-2.9,1-8.5,2.4-14.1,2.4c-7.7,0-13.3-1.9-17.2-5.6c-3.8-3.7-6-9.2-6-15.4
			C141.9,56,152.1,48,166,48c5.4,0,9.6,1.1,11.7,2l-2,7.7c-2.3-1.1-5.1-1.8-9.8-1.8c-8,0-14,4.5-14,13.7c0,8.8,5.5,13.8,13.3,13.8
			c2.1,0,3.9-0.3,4.6-0.6v-8.9h-6.5v-7.5h15.7V88.7z"/>
		<path class="st0" d="M201.3,90.7c-0.5-0.5-1-1.1-1.6-1.7c-1.6,1.2-3.8,2.1-6.7,2.1c-5.9,0-8.5-3.5-8.5-6.9c0-3.2,1.9-5.6,4.6-7V77
			c-1.1-1.2-1.9-3-1.9-4.7c0-3.1,2.4-6.5,7.4-6.5c3.8,0,6.6,2.2,6.6,5.7c0,2.5-1.5,4.6-4.8,6.3V78c1.4,1.6,2.9,3.3,4.1,4.6
			c1-1.5,1.7-3.8,2.1-6h4.9c-0.7,3.7-1.9,6.9-4.1,9.3c1.4,1.6,2.8,3.2,4.3,4.8H201.3z M193.7,87.1c1.4,0,2.6-0.5,3.3-1.2
			c-1.5-1.5-3.5-3.7-5.5-6c-1,0.7-2,1.8-2,3.4C189.6,85.3,191.2,87.1,193.7,87.1L193.7,87.1z M194.3,69.2c-1.4,0-2.2,1.2-2.2,2.5
			c0,1.2,0.5,2.3,1.7,3.5c1.8-1.2,2.7-2.2,2.7-3.6C196.5,70.5,195.8,69.2,194.3,69.2L194.3,69.2z"/>
		<path class="st0" d="M243.3,89.5c-1.7,0.8-5.7,1.8-10.7,1.8c-14.5,0-22-9.1-22-21c0-14.3,10.2-22.2,22.9-22.2
			c4.9,0,8.7,1,10.3,1.8l-2,7.5c-1.9-0.8-4.5-1.6-8-1.6c-7.5,0-13.3,4.5-13.3,13.9c0,8.3,5,13.6,13.4,13.6c2.9,0,6-0.6,8-1.4
			L243.3,89.5z"/>
		<path class="st0" d="M254.7,57.6c-3,0-4.9-2.1-4.9-4.7c0-2.7,2-4.7,5-4.7c3,0,4.9,2.1,5,4.7C259.8,55.4,257.8,57.6,254.7,57.6
			L254.7,57.6z"/>
		<rect x="250" y="60.2" class="st0" width="9.5" height="30.4"/>
		<path class="st0" d="M293.3,83.3c0,2.9,0.1,5.7,0.5,7.3h-8.5l-0.6-3.1h-0.2c-2,2.4-5.1,3.7-8.7,3.7c-6.2,0-9.8-4.5-9.8-9.3
			c0-7.9,7.1-11.6,17.9-11.6V70c0-1.6-0.9-3.9-5.5-3.9c-3.1,0-6.4,1.1-8.4,2.2l-1.7-6c2.1-1.2,6.3-2.7,11.8-2.7
			c10.1,0,13.3,6,13.3,13.1V83.3z M284.2,76.3c-5,0-8.8,1.2-8.8,4.8c0,2.4,1.6,3.6,3.7,3.6c2.3,0,4.3-1.6,4.9-3.5
			c0.1-0.5,0.2-1.1,0.2-1.6V76.3z"/>
		<path class="st0" d="M306.7,91.4c-3.2,0-5.5-2.4-5.5-5.7c0-3.4,2.3-5.8,5.6-5.8c3.2,0,5.5,2.3,5.5,5.8
			C312.4,88.9,310.2,91.4,306.7,91.4L306.7,91.4z"/>
	</g>
	<g>
		<path class="st1" d="M60.8,76.5c0,5.9-4.8,10.6-10.6,10.6c-5.9,0-10.6-4.8-10.6-10.6c0-5.9,4.8-10.6,10.6-10.6
			C56.1,65.9,60.8,70.6,60.8,76.5z"/>
		<g>
			<path class="st2" d="M98.2,50.7C98.2,50.7,98.2,50.7,98.2,50.7c-0.2-0.2-0.3-0.4-0.5-0.5c-1.1-1.1-2.6-1.9-4.3-2
				c-0.2,0-0.5,0-0.7,0H21.9c-3.9,0-7.1,3.2-7.1,7.1c0,3.9,3.2,7.1,7.1,7.1h63.8v21.3c0,3.9,3.2,7.1,7.1,7.1h7.1v-7.1V55.2
				C99.8,53.5,99.2,52,98.2,50.7z"/>
			<path class="st2" d="M99.8,12.7c0,3.9-3.2,7.1-7.1,7.1H78.5c-3.9,0-7.1-3.2-7.1-7.1l0,0c0-3.9,3.2-7.1,7.1-7.1h14.2
				C96.6,5.6,99.8,8.8,99.8,12.7L99.8,12.7z"/>
			<path class="st2" d="M99.8,34c0,3.9-3.2,7.1-7.1,7.1H64.4c-3.9,0-7.1-3.2-7.1-7.1l0,0c0-3.9,3.2-7.1,7.1-7.1h28.3
				C96.6,26.9,99.8,30.1,99.8,34L99.8,34z"/>
		</g>
		<g>
			<path class="st3" d="M2.2,102.3C2.2,102.3,2.2,102.3,2.2,102.3c0.2,0.2,0.3,0.4,0.5,0.5c1.1,1.1,2.6,1.9,4.3,2c0.2,0,0.5,0,0.7,0
				h70.9c3.9,0,7.1-3.2,7.1-7.1c0-3.9-3.2-7.1-7.1-7.1H14.8V69.4c0-3.9-3.2-7.1-7.1-7.1H0.6v7.1v28.3C0.6,99.5,1.2,101,2.2,102.3z"
				/>
			<path class="st3" d="M0.6,140.3c0-3.9,3.2-7.1,7.1-7.1h14.2c3.9,0,7.1,3.2,7.1,7.1l0,0c0,3.9-3.2,7.1-7.1,7.1H7.7
				C3.8,147.4,0.6,144.2,0.6,140.3L0.6,140.3z"/>
			<path class="st3" d="M0.6,119c0-3.9,3.2-7.1,7.1-7.1H36c3.9,0,7.1,3.2,7.1,7.1l0,0c0,3.9-3.2,7.1-7.1,7.1H7.7
				C3.8,126.1,0.6,122.9,0.6,119L0.6,119z"/>
		</g>
	</g>
</g>
</svg>
