<?xml version="1.0" encoding="utf-8"?>
<!-- Generator: Adobe Illustrator 22.1.0, SVG Export Plug-In . SVG Version: 6.00 Build 0)  -->
<svg version="1.1" id="Layer_1" xmlns="http://www.w3.org/2000/svg" xmlns:xlink="http://www.w3.org/1999/xlink" x="0px" y="0px"
	 viewBox="0 0 36 36" style="enable-background:new 0 0 36 36;" xml:space="preserve">
<style type="text/css">
	.st0{fill:#3E3C38;}
	.st1{fill:#567BC6;}
	.st2{fill:#EE9D2E;}
	.st3{fill:#EADC3C;}
	.st4{fill:#B2B2B2;}
	.st5{fill:#EDAF30;}
	.st6{fill:#FFFFFF;}
</style>
<g>
	<path class="st5" d="M19,17.6L19,17.6C19,17.6,19,17.6,19,17.6L19,17.6z"/>
	<path class="st5" d="M18,0C8.1,0,0,8.1,0,18c0,9.9,8.1,18,18,18s18-8.1,18-18C36,8.1,27.9,0,18,0z M13.4,26.9H9.8V16h3.6V26.9z
		 M11.6,14.5L11.6,14.5c-1.2,0-2-0.8-2-1.9c0-1.1,0.8-1.9,2-1.9c1.2,0,2,0.8,2,1.9C13.6,13.7,12.9,14.5,11.6,14.5z M26.4,26.9h-3.6
		v-5.8c0-1.5-0.5-2.5-1.8-2.5c-1,0-1.6,0.7-1.8,1.3C19,20.2,19,20.5,19,20.8v6.1h-3.6c0,0,0-9.8,0-10.8H19v1.5
		c0.5-0.7,1.3-1.8,3.2-1.8c2.4,0,4.1,1.5,4.1,4.9V26.9z"/>
</g>
</svg>
