<?xml version="1.0" encoding="utf-8"?>
<!-- Generator: Adobe Illustrator 22.1.0, SVG Export Plug-In . SVG Version: 6.00 Build 0)  -->
<svg version="1.1" id="Layer_1" xmlns="http://www.w3.org/2000/svg" xmlns:xlink="http://www.w3.org/1999/xlink" x="0px" y="0px"
	 viewBox="0 0 36 36" style="enable-background:new 0 0 36 36;" xml:space="preserve">
<style type="text/css">
	.st0{fill:#3E3C38;}
	.st1{fill:#567BC6;}
	.st2{fill:#EE9D2E;}
	.st3{fill:#EADC3C;}
	.st4{fill:#B2B2B2;}
	.st5{fill:#EDAF30;}
	.st6{fill:#FFFFFF;}
</style>
<circle class="st5" cx="18" cy="18" r="18"/>
<path class="st6" d="M26.8,14.1c0,0-0.2-1.3-0.7-1.9c-0.7-0.8-1.5-0.8-1.8-0.8c-2.5-0.2-6.3-0.2-6.3-0.2s-3.8,0-6.3,0.2
	c-0.3,0-1.1,0.1-1.8,0.8c-0.6,0.6-0.7,1.9-0.7,1.9S9,15.7,9,17.3v1.5c0,1.6,0.2,3.1,0.2,3.1s0.2,1.3,0.7,1.9c0.7,0.8,1.6,0.7,2,0.8
	c1.4,0.2,6.1,0.2,6.1,0.2s3.8,0,6.3-0.2c0.3,0,1.1-0.1,1.8-0.8c0.5-0.6,0.7-1.9,0.7-1.9s0.2-1.6,0.2-3.1v-1.5
	C27,15.7,26.8,14.1,26.8,14.1z M15.8,21.6v-6.7l5.9,3.4L15.8,21.6z"/>
</svg>
