<?xml version="1.0" encoding="utf-8"?>
<!-- Generator: Adobe Illustrator 22.1.0, SVG Export Plug-In . SVG Version: 6.00 Build 0)  -->
<svg version="1.1" id="Layer_1" xmlns="http://www.w3.org/2000/svg" xmlns:xlink="http://www.w3.org/1999/xlink" x="0px" y="0px"
	 viewBox="0 0 313 153" style="enable-background:new 0 0 313 153;" xml:space="preserve">
<style type="text/css">
	.st0{fill:#3E3C38;}
	.st1{fill:#567BC6;}
	.st2{fill:#EE9D2E;}
	.st3{fill:#EADC3C;}
	.st4{fill:#B2B2B2;}
</style>
<g>
	<g>
		<g id="PG_x26_Cia._2_">
			<path class="st0" d="M106.9,48.9c3-0.5,7.1-0.9,12.9-0.9c5.9,0,10.1,1.1,12.9,3.5c2.8,2.1,4.5,5.6,4.5,9.7c0,4.2-1.3,7.7-3.9,10
				c-3.3,3-8.1,4.5-13.7,4.5c-1.3,0-2.4-0.1-3.3-0.3v15.2h-9.5V48.9z M116.4,68.1c0.8,0.2,1.8,0.3,3.2,0.3c5.1,0,8.2-2.6,8.2-6.8
				c0-3.9-2.7-6.2-7.5-6.2c-1.9,0-3.2,0.1-3.9,0.3V68.1z"/>
			<path class="st0" d="M179.1,88.7c-2.9,1-8.5,2.4-14.1,2.4c-7.7,0-13.3-1.9-17.2-5.6c-3.8-3.7-6-9.2-6-15.4
				C141.9,56,152.1,48,166,48c5.4,0,9.6,1.1,11.7,2l-2,7.7c-2.3-1.1-5.1-1.8-9.8-1.8c-8,0-14,4.5-14,13.7c0,8.8,5.5,13.8,13.3,13.8
				c2.1,0,3.9-0.3,4.6-0.6v-8.9h-6.5v-7.5h15.7V88.7z"/>
			<path class="st0" d="M201.3,90.7c-0.5-0.5-1-1.1-1.6-1.7c-1.6,1.2-3.8,2.1-6.7,2.1c-5.9,0-8.5-3.5-8.5-6.9c0-3.2,1.9-5.6,4.6-7
				V77c-1.1-1.2-1.9-3-1.9-4.7c0-3.1,2.4-6.5,7.4-6.5c3.8,0,6.6,2.2,6.6,5.7c0,2.5-1.5,4.6-4.8,6.3V78c1.4,1.6,2.9,3.3,4.1,4.6
				c1-1.5,1.7-3.8,2.1-6h4.9c-0.7,3.7-1.9,6.9-4.1,9.3c1.4,1.6,2.8,3.2,4.3,4.8H201.3z M193.7,87.1c1.4,0,2.6-0.5,3.3-1.2
				c-1.5-1.5-3.5-3.7-5.5-6c-1,0.7-2,1.8-2,3.4C189.6,85.3,191.2,87.1,193.7,87.1L193.7,87.1z M194.3,69.2c-1.4,0-2.2,1.2-2.2,2.5
				c0,1.2,0.5,2.3,1.7,3.5c1.8-1.2,2.7-2.2,2.7-3.6C196.5,70.5,195.8,69.2,194.3,69.2L194.3,69.2z"/>
			<path class="st0" d="M243.3,89.5c-1.7,0.8-5.7,1.8-10.7,1.8c-14.5,0-22-9.1-22-21c0-14.3,10.2-22.2,22.9-22.2
				c4.9,0,8.7,1,10.3,1.8l-2,7.5c-1.9-0.8-4.5-1.6-8-1.6c-7.5,0-13.3,4.5-13.3,13.9c0,8.3,5,13.6,13.4,13.6c2.9,0,6-0.6,8-1.4
				L243.3,89.5z"/>
			<path class="st0" d="M254.7,57.6c-3,0-4.9-2.1-4.9-4.7c0-2.7,2-4.7,5-4.7c3,0,4.9,2.1,5,4.7C259.8,55.4,257.8,57.6,254.7,57.6
				L254.7,57.6z"/>
			<rect x="250" y="60.2" class="st0" width="9.5" height="30.4"/>
			<path class="st0" d="M293.3,83.3c0,2.9,0.1,5.7,0.5,7.3h-8.5l-0.6-3.1h-0.2c-2,2.4-5.1,3.7-8.7,3.7c-6.2,0-9.8-4.5-9.8-9.3
				c0-7.9,7.1-11.6,17.9-11.6V70c0-1.6-0.9-3.9-5.5-3.9c-3.1,0-6.4,1.1-8.4,2.2l-1.7-6c2.1-1.2,6.3-2.7,11.8-2.7
				c10.1,0,13.3,6,13.3,13.1V83.3z M284.2,76.3c-5,0-8.8,1.2-8.8,4.8c0,2.4,1.6,3.6,3.7,3.6c2.3,0,4.3-1.6,4.9-3.5
				c0.1-0.5,0.2-1.1,0.2-1.6V76.3z"/>
			<path class="st0" d="M306.7,91.4c-3.2,0-5.5-2.4-5.5-5.7c0-3.4,2.3-5.8,5.6-5.8c3.2,0,5.5,2.3,5.5,5.8
				C312.4,88.9,310.2,91.4,306.7,91.4L306.7,91.4z"/>
		</g>
		<g>
			<g id="advertising_1_">
				<path class="st0" d="M110.7,103.4c0,0.5,0,0.9,0.1,1.4h-0.5l-0.1-0.8h0c-0.3,0.5-0.9,1-1.9,1c-1.2,0-1.7-0.8-1.7-1.6
					c0-1.4,1.2-2.2,3.6-2.2V101c0-0.6-0.1-1.8-1.5-1.7c-0.5,0-1.1,0.1-1.5,0.4l-0.2-0.4c0.5-0.4,1.2-0.5,1.7-0.5c1.7,0,2,1.3,2,2.3
					V103.4z M110.1,101.7c-1.3,0-3,0.2-3,1.6c0,0.9,0.6,1.2,1.2,1.2c1,0,1.6-0.6,1.8-1.2c0-0.1,0.1-0.3,0.1-0.4V101.7z"/>
				<path class="st0" d="M118.5,96.1v7.4c0,0.4,0,0.9,0,1.4h-0.5l0-1.1h0c-0.3,0.7-1,1.3-2.1,1.3c-1.5,0-2.6-1.2-2.6-3
					c0-2,1.2-3.2,2.7-3.2c1,0,1.7,0.5,1.9,1h0v-3.8H118.5z M118,101.3c0-0.2,0-0.4-0.1-0.5c-0.2-0.8-0.9-1.4-1.9-1.4
					c-1.3,0-2.1,1.1-2.1,2.7c0,1.3,0.7,2.6,2.1,2.6c0.8,0,1.7-0.6,1.9-1.5c0-0.1,0.1-0.3,0.1-0.5V101.3z"/>
				<path class="st0" d="M121.6,98.9l1.4,3.7c0.2,0.6,0.4,1.1,0.6,1.6h0c0.2-0.5,0.4-1,0.6-1.6l1.4-3.7h0.6l-2.4,5.9h-0.5l-2.3-5.9
					H121.6z"/>
				<path class="st0" d="M128.6,101.8c0,1.9,1,2.6,2.3,2.6c0.9,0,1.3-0.2,1.6-0.3l0.1,0.5c-0.2,0.1-0.8,0.4-1.9,0.4
					c-1.7,0-2.8-1.2-2.8-3c0-2,1.1-3.2,2.7-3.2c1.9,0,2.3,1.8,2.3,2.7c0,0.2,0,0.2,0,0.4H128.6z M132.3,101.4c0-0.8-0.3-2.1-1.8-2.1
					c-1.3,0-1.9,1.2-2,2.1H132.3z"/>
				<path class="st0" d="M135.7,100.7c0-0.6,0-1.2,0-1.8h0.5l0,1.2h0c0.3-0.8,0.9-1.3,1.7-1.3c0.1,0,0.2,0,0.2,0v0.6
					c-0.1,0-0.2,0-0.3,0c-0.8,0-1.4,0.7-1.6,1.7c0,0.2-0.1,0.4-0.1,0.6v3.3h-0.6V100.7z"/>
				<path class="st0" d="M141.7,97.6v1.3h1.7v0.5h-1.7v3.8c0,0.8,0.2,1.2,0.9,1.2c0.3,0,0.5,0,0.7-0.1l0.1,0.4
					c-0.2,0.1-0.5,0.1-0.8,0.1c-0.4,0-0.8-0.1-1-0.4c-0.3-0.3-0.4-0.8-0.4-1.4v-3.7h-1v-0.5h1v-1.1L141.7,97.6z"/>
				<path class="st0" d="M146.2,97.7c-0.3,0-0.5-0.2-0.5-0.5c0-0.3,0.2-0.5,0.5-0.5c0.3,0,0.5,0.2,0.5,0.5
					C146.7,97.5,146.5,97.7,146.2,97.7L146.2,97.7z M145.9,104.8v-5.9h0.6v5.9H145.9z"/>
				<path class="st0" d="M149.5,104.1c0.3,0.2,0.8,0.4,1.3,0.4c0.9,0,1.4-0.5,1.4-1.1c0-0.7-0.4-1-1.2-1.3c-1-0.4-1.5-0.9-1.5-1.6
					c0-0.9,0.7-1.6,1.8-1.6c0.5,0,1,0.2,1.3,0.4l-0.2,0.5c-0.2-0.1-0.6-0.4-1.2-0.4c-0.8,0-1.1,0.5-1.1,1c0,0.6,0.4,0.9,1.2,1.2
					c1,0.4,1.5,0.9,1.5,1.8c0,1-0.8,1.7-2,1.7c-0.6,0-1.1-0.2-1.5-0.4L149.5,104.1z"/>
				<path class="st0" d="M155.8,97.7c-0.3,0-0.5-0.2-0.5-0.5c0-0.3,0.2-0.5,0.5-0.5c0.3,0,0.5,0.2,0.5,0.5
					C156.3,97.5,156.1,97.7,155.8,97.7L155.8,97.7z M155.6,104.8v-5.9h0.6v5.9H155.6z"/>
				<path class="st0" d="M159.4,100.3c0-0.5,0-1,0-1.4h0.6l0,1.1h0c0.3-0.7,1.1-1.2,2-1.2c0.6,0,2.1,0.3,2.1,2.5v3.5h-0.6v-3.5
					c0-1.1-0.4-2.1-1.6-2.1c-0.8,0-1.5,0.6-1.8,1.4c0,0.1-0.1,0.3-0.1,0.5v3.7h-0.6V100.3z"/>
				<path class="st0" d="M171.9,104c0,1.5-0.3,2.3-0.8,2.7c-0.5,0.5-1.3,0.7-2,0.7c-0.7,0-1.4-0.2-1.9-0.5l0.2-0.5
					c0.4,0.3,1,0.5,1.8,0.5c1.2,0,2.1-0.6,2.1-2.4v-0.8h0c-0.3,0.6-1,1.1-2.1,1.1c-1.5,0-2.5-1.3-2.5-2.9c0-2.1,1.4-3.1,2.7-3.1
					c1.2,0,1.8,0.6,2,1.1h0l0-1h0.5c0,0.4,0,0.9,0,1.5V104z M171.3,101.2c0-0.2,0-0.4-0.1-0.6c-0.2-0.7-0.9-1.3-1.8-1.3
					c-1.3,0-2.1,1-2.1,2.6c0,1.3,0.7,2.5,2.1,2.5c0.8,0,1.5-0.5,1.8-1.3c0.1-0.2,0.1-0.4,0.1-0.6V101.2z"/>
			</g>
			<g id="production_1_">
				<path class="st0" d="M179.3,100.8c0-0.7,0-1.3,0-1.9h0.6l0,1.1h0c0.4-0.8,1.2-1.3,2.2-1.3c1.5,0,2.5,1.3,2.5,3
					c0,2.1-1.3,3.2-2.7,3.2c-0.8,0-1.6-0.4-2-1.1h0v3.4h-0.6V100.8z M179.9,102.5c0,0.2,0,0.3,0,0.5c0.2,0.9,1,1.5,1.9,1.5
					c1.4,0,2.1-1.1,2.1-2.7c0-1.3-0.7-2.5-2.1-2.5c-0.9,0-1.7,0.6-2,1.6c0,0.2-0.1,0.3-0.1,0.5V102.5z"/>
				<path class="st0" d="M187.4,100.7c0-0.6,0-1.2,0-1.8h0.5l0,1.2h0c0.3-0.8,0.9-1.3,1.7-1.3c0.1,0,0.2,0,0.2,0v0.6
					c-0.1,0-0.2,0-0.3,0c-0.8,0-1.4,0.7-1.6,1.7c0,0.2,0,0.4,0,0.6v3.3h-0.6V100.7z"/>
				<path class="st0" d="M194.3,105c-1.5,0-2.7-1.2-2.7-3c0-2,1.3-3.1,2.8-3.1c1.6,0,2.7,1.2,2.7,3C197.2,104,195.6,105,194.3,105
					L194.3,105z M194.4,104.5c1.2,0,2.2-1.1,2.2-2.6c0-1.1-0.6-2.6-2.2-2.6c-1.5,0-2.2,1.3-2.2,2.6
					C192.2,103.4,193.1,104.5,194.4,104.5L194.4,104.5z"/>
				<path class="st0" d="M204.6,96.1v7.4c0,0.4,0,0.9,0,1.4h-0.5l0-1.1h0c-0.3,0.7-1,1.3-2.1,1.3c-1.5,0-2.6-1.2-2.6-3
					c0-2,1.2-3.2,2.7-3.2c1,0,1.7,0.5,1.9,1h0v-3.8H204.6z M204,101.3c0-0.2,0-0.4-0.1-0.5c-0.2-0.8-0.9-1.4-1.9-1.4
					c-1.3,0-2.1,1.1-2.1,2.7c0,1.3,0.7,2.6,2.1,2.6c0.8,0,1.7-0.6,1.9-1.5c0-0.1,0.1-0.3,0.1-0.5V101.3z"/>
				<path class="st0" d="M212.4,103.4c0,0.5,0,1,0,1.4h-0.6l0-1.1h0c-0.3,0.6-1,1.2-2,1.2c-0.8,0-2-0.4-2-2.6v-3.4h0.6v3.3
					c0,1.3,0.4,2.2,1.6,2.2c0.9,0,1.5-0.6,1.8-1.2c0.1-0.2,0.1-0.4,0.1-0.7v-3.7h0.6V103.4z"/>
				<path class="st0" d="M219.7,104.6c-0.3,0.1-0.9,0.4-1.7,0.4c-1.7,0-2.8-1.2-2.8-3c0-1.9,1.3-3.2,3-3.2c0.7,0,1.3,0.2,1.6,0.4
					l-0.2,0.5c-0.3-0.2-0.7-0.3-1.4-0.3c-1.6,0-2.4,1.2-2.4,2.6c0,1.6,1,2.6,2.3,2.6c0.7,0,1.2-0.2,1.5-0.3L219.7,104.6z"/>
				<path class="st0" d="M223.3,97.6v1.3h1.7v0.5h-1.7v3.8c0,0.8,0.2,1.2,0.9,1.2c0.3,0,0.5,0,0.7-0.1l0.1,0.4
					c-0.2,0.1-0.5,0.1-0.8,0.1c-0.4,0-0.8-0.1-1-0.4c-0.3-0.3-0.4-0.8-0.4-1.4v-3.7h-1v-0.5h1v-1.1L223.3,97.6z"/>
				<path class="st0" d="M227.8,97.7c-0.3,0-0.5-0.2-0.5-0.5c0-0.3,0.2-0.5,0.5-0.5c0.3,0,0.5,0.2,0.5,0.5
					C228.3,97.5,228.1,97.7,227.8,97.7L227.8,97.7z M227.5,104.8v-5.9h0.6v5.9H227.5z"/>
				<path class="st0" d="M233.5,105c-1.5,0-2.7-1.2-2.7-3c0-2,1.3-3.1,2.8-3.1c1.6,0,2.8,1.2,2.8,3C236.4,104,234.9,105,233.5,105
					L233.5,105z M233.6,104.5c1.2,0,2.2-1.1,2.2-2.6c0-1.1-0.6-2.6-2.2-2.6c-1.5,0-2.2,1.3-2.2,2.6
					C231.4,103.4,232.4,104.5,233.6,104.5L233.6,104.5z"/>
				<path class="st0" d="M239.1,100.3c0-0.5,0-1,0-1.4h0.6l0,1.1h0c0.3-0.7,1.1-1.2,2-1.2c0.6,0,2.1,0.3,2.1,2.5v3.5h-0.6v-3.5
					c0-1.1-0.4-2.1-1.6-2.1c-0.8,0-1.5,0.6-1.8,1.4c0,0.1-0.1,0.3-0.1,0.5v3.7h-0.6V100.3z"/>
			</g>
			<g id="consulting_1_">
				<path class="st0" d="M255.2,104.6c-0.3,0.1-0.9,0.4-1.7,0.4c-1.7,0-2.8-1.2-2.8-3c0-1.9,1.3-3.2,3-3.2c0.7,0,1.3,0.2,1.6,0.4
					l-0.2,0.5c-0.3-0.2-0.7-0.3-1.4-0.3c-1.6,0-2.4,1.2-2.4,2.6c0,1.6,1,2.6,2.3,2.6c0.7,0,1.2-0.2,1.5-0.3L255.2,104.6z"/>
				<path class="st0" d="M260.1,105c-1.5,0-2.7-1.2-2.7-3c0-2,1.3-3.1,2.8-3.1c1.6,0,2.7,1.2,2.7,3C262.9,104,261.4,105,260.1,105
					L260.1,105z M260.1,104.5c1.2,0,2.2-1.1,2.2-2.6c0-1.1-0.6-2.6-2.2-2.6c-1.5,0-2.2,1.3-2.2,2.6
					C258,103.4,258.9,104.5,260.1,104.5L260.1,104.5z"/>
				<path class="st0" d="M265.7,100.3c0-0.5,0-1,0-1.4h0.6l0,1.1h0c0.3-0.7,1.1-1.2,2-1.2c0.6,0,2.1,0.3,2.1,2.5v3.5h-0.6v-3.5
					c0-1.1-0.4-2.1-1.6-2.1c-0.8,0-1.5,0.6-1.8,1.4c0,0.1-0.1,0.3-0.1,0.5v3.7h-0.6V100.3z"/>
				<path class="st0" d="M273.2,104.1c0.3,0.2,0.8,0.4,1.3,0.4c0.9,0,1.4-0.5,1.4-1.1c0-0.7-0.4-1-1.2-1.3c-1-0.4-1.5-0.9-1.5-1.6
					c0-0.9,0.7-1.6,1.8-1.6c0.5,0,1,0.2,1.3,0.4l-0.2,0.5c-0.2-0.1-0.6-0.4-1.2-0.4c-0.8,0-1.1,0.5-1.1,1c0,0.6,0.4,0.9,1.2,1.2
					c1,0.4,1.5,0.9,1.5,1.8c0,1-0.8,1.7-2,1.7c-0.6,0-1.1-0.2-1.5-0.4L273.2,104.1z"/>
				<path class="st0" d="M283.9,103.4c0,0.5,0,1,0,1.4h-0.6l0-1.1h0c-0.3,0.6-1,1.2-2,1.2c-0.8,0-2-0.4-2-2.6v-3.4h0.6v3.3
					c0,1.3,0.4,2.2,1.6,2.2c0.9,0,1.5-0.6,1.8-1.2c0.1-0.2,0.1-0.4,0.1-0.7v-3.7h0.6V103.4z"/>
				<path class="st0" d="M287.1,96.1h0.6v8.8h-0.6V96.1z"/>
				<path class="st0" d="M291.8,97.6v1.3h1.7v0.5h-1.7v3.8c0,0.8,0.2,1.2,0.9,1.2c0.3,0,0.5,0,0.7-0.1l0.1,0.4
					c-0.2,0.1-0.5,0.1-0.8,0.1c-0.4,0-0.8-0.1-1-0.4c-0.3-0.3-0.4-0.8-0.4-1.4v-3.7h-1v-0.5h1v-1.1L291.8,97.6z"/>
				<path class="st0" d="M296.3,97.7c-0.3,0-0.5-0.2-0.5-0.5c0-0.3,0.2-0.5,0.5-0.5c0.3,0,0.5,0.2,0.5,0.5
					C296.8,97.5,296.6,97.7,296.3,97.7L296.3,97.7z M296,104.8v-5.9h0.6v5.9H296z"/>
				<path class="st0" d="M299.8,100.3c0-0.5,0-1,0-1.4h0.6l0,1.1h0c0.3-0.7,1.1-1.2,2-1.2c0.6,0,2.1,0.3,2.1,2.5v3.5h-0.6v-3.5
					c0-1.1-0.4-2.1-1.6-2.1c-0.8,0-1.5,0.6-1.8,1.4c0,0.1-0.1,0.3-0.1,0.5v3.7h-0.6V100.3z"/>
				<path class="st0" d="M312.4,104c0,1.5-0.3,2.3-0.8,2.7c-0.5,0.5-1.3,0.7-2,0.7c-0.7,0-1.4-0.2-1.9-0.5l0.2-0.5
					c0.4,0.3,1,0.5,1.8,0.5c1.2,0,2.1-0.6,2.1-2.4v-0.8h0c-0.3,0.6-1,1.1-2.1,1.1c-1.5,0-2.5-1.3-2.5-2.9c0-2.1,1.4-3.1,2.7-3.1
					c1.2,0,1.8,0.6,2,1.1h0l0-1h0.5c0,0.4,0,0.9,0,1.5V104z M311.8,101.2c0-0.2,0-0.4-0.1-0.6c-0.2-0.7-0.9-1.3-1.8-1.3
					c-1.3,0-2.1,1-2.1,2.6c0,1.3,0.7,2.5,2.1,2.5c0.8,0,1.5-0.5,1.8-1.3c0.1-0.2,0.1-0.4,0.1-0.6V101.2z"/>
			</g>
		</g>
	</g>
	<g>
		<path class="st1" d="M60.8,76.5c0,5.9-4.8,10.6-10.6,10.6c-5.9,0-10.6-4.8-10.6-10.6c0-5.9,4.8-10.6,10.6-10.6
			C56.1,65.9,60.8,70.6,60.8,76.5z"/>
		<g>
			<path class="st2" d="M98.2,50.7C98.2,50.7,98.2,50.7,98.2,50.7c-0.2-0.2-0.3-0.4-0.5-0.5c-1.1-1.1-2.6-1.9-4.3-2
				c-0.2,0-0.5,0-0.7,0H21.9c-3.9,0-7.1,3.2-7.1,7.1c0,3.9,3.2,7.1,7.1,7.1h63.8v21.3c0,3.9,3.2,7.1,7.1,7.1h7.1v-7.1V55.2
				C99.8,53.5,99.2,52,98.2,50.7z"/>
			<path class="st2" d="M99.8,12.7c0,3.9-3.2,7.1-7.1,7.1H78.5c-3.9,0-7.1-3.2-7.1-7.1l0,0c0-3.9,3.2-7.1,7.1-7.1h14.2
				C96.6,5.6,99.8,8.8,99.8,12.7L99.8,12.7z"/>
			<path class="st2" d="M99.8,34c0,3.9-3.2,7.1-7.1,7.1H64.4c-3.9,0-7.1-3.2-7.1-7.1l0,0c0-3.9,3.2-7.1,7.1-7.1h28.3
				C96.6,26.9,99.8,30.1,99.8,34L99.8,34z"/>
		</g>
		<g>
			<path class="st3" d="M2.2,102.3C2.2,102.3,2.2,102.3,2.2,102.3c0.2,0.2,0.3,0.4,0.5,0.5c1.1,1.1,2.6,1.9,4.3,2c0.2,0,0.5,0,0.7,0
				h70.9c3.9,0,7.1-3.2,7.1-7.1c0-3.9-3.2-7.1-7.1-7.1H14.8V69.4c0-3.9-3.2-7.1-7.1-7.1H0.6v7.1v28.3C0.6,99.5,1.2,101,2.2,102.3z"
				/>
			<path class="st3" d="M0.6,140.3c0-3.9,3.2-7.1,7.1-7.1h14.2c3.9,0,7.1,3.2,7.1,7.1l0,0c0,3.9-3.2,7.1-7.1,7.1H7.7
				C3.8,147.4,0.6,144.2,0.6,140.3L0.6,140.3z"/>
			<path class="st3" d="M0.6,119c0-3.9,3.2-7.1,7.1-7.1H36c3.9,0,7.1,3.2,7.1,7.1l0,0c0,3.9-3.2,7.1-7.1,7.1H7.7
				C3.8,126.1,0.6,122.9,0.6,119L0.6,119z"/>
		</g>
	</g>
</g>
</svg>
