<?xml version="1.0" encoding="utf-8"?>
<!-- Generator: Adobe Illustrator 22.1.0, SVG Export Plug-In . SVG Version: 6.00 Build 0)  -->
<svg version="1.1" id="Layer_1" xmlns="http://www.w3.org/2000/svg" xmlns:xlink="http://www.w3.org/1999/xlink" x="0px" y="0px"
	 viewBox="0 0 36 36" style="enable-background:new 0 0 36 36;" xml:space="preserve">
<style type="text/css">
	.st0{fill:#3E3C38;}
	.st1{fill:#567BC6;}
	.st2{fill:#EE9D2E;}
	.st3{fill:#EADC3C;}
	.st4{fill:#B2B2B2;}
</style>
<g>
	<path class="st2" d="M31,10c0,1.1-1,2-2.2,2H7.2C6,12,5,11.1,5,10l0,0c0-1.1,1-2,2.2-2h21.6C30,8,31,8.9,31,10L31,10z"/>
	<path class="st2" d="M31,18c0,1.1-1,2-2.2,2H7.2C6,20,5,19.1,5,18l0,0c0-1.1,1-2,2.2-2h21.6C30,16,31,16.9,31,18L31,18z"/>
	<path class="st2" d="M31,26c0,1.1-1,2-2.2,2H7.2C6,28,5,27.1,5,26l0,0c0-1.1,1-2,2.2-2h21.6C30,24,31,24.9,31,26L31,26z"/>
</g>
</svg>
