<?xml version="1.0" encoding="utf-8"?>
<!-- Generator: Adobe Illustrator 22.1.0, SVG Export Plug-In . SVG Version: 6.00 Build 0)  -->
<svg version="1.1" id="Layer_1" xmlns="http://www.w3.org/2000/svg" xmlns:xlink="http://www.w3.org/1999/xlink" x="0px" y="0px"
	 viewBox="0 0 36 36" style="enable-background:new 0 0 36 36;" xml:space="preserve">
<style type="text/css">
	.st0{fill:#3E3C38;}
	.st1{fill:#567BC6;}
	.st2{fill:#EE9D2E;}
	.st3{fill:#EADC3C;}
	.st4{fill:#B2B2B2;}
	.st5{fill:#EDAF30;}
	.st6{fill:#FFFFFF;}
</style>
<circle class="st5" cx="18" cy="18" r="18"/>
<g>
	<path class="st6" d="M22.7,8.5h-9.4c-2.6,0-4.8,2.1-4.8,4.8v9.4c0,2.6,2.1,4.8,4.8,4.8h9.4c2.6,0,4.8-2.1,4.8-4.8v-9.4
		C27.5,10.7,25.3,8.5,22.7,8.5z M25.4,22.7c0,1.5-1.2,2.7-2.7,2.7h-9.4c-1.5,0-2.7-1.2-2.7-2.7v-9.4c0-1.5,1.2-2.7,2.7-2.7h9.4
		c1.5,0,2.7,1.2,2.7,2.7V22.7z"/>
	<path class="st6" d="M23,11.8c-0.6,0-1.2,0.5-1.2,1.2c0,0.6,0.5,1.2,1.2,1.2c0.6,0,1.2-0.5,1.2-1.2C24.2,12.3,23.7,11.8,23,11.8z"
		/>
	<path class="st6" d="M18,13c-2.7,0-4.9,2.2-4.9,4.9c0,2.7,2.2,4.9,4.9,4.9c2.7,0,4.9-2.2,4.9-4.9C22.9,15.2,20.7,13,18,13z
		 M18,20.8c-1.6,0-2.8-1.3-2.8-2.8c0-1.6,1.3-2.8,2.8-2.8c1.6,0,2.8,1.3,2.8,2.8C20.8,19.6,19.6,20.8,18,20.8z"/>
</g>
</svg>
