<?xml version="1.0" encoding="utf-8"?>
<!-- Generator: Adobe Illustrator 22.1.0, SVG Export Plug-In . SVG Version: 6.00 Build 0)  -->
<svg version="1.1" id="Layer_1" xmlns="http://www.w3.org/2000/svg" xmlns:xlink="http://www.w3.org/1999/xlink" x="0px" y="0px"
	 viewBox="0 0 200 200" style="enable-background:new 0 0 200 200;" xml:space="preserve">
<style type="text/css">
	.st0{fill:#D1005D;}
	.st1{fill:none;stroke:#D1005D;stroke-width:0.8;stroke-miterlimit:3.864;}
</style>
<g>
	<path class="st0" d="M57.7,85.1c0-1.1-0.8-2-1.9-2c-1.1,0-2,0.8-2,1.9c0,1.2,0.8,2.1,2,2.1C56.8,87.3,57.7,86.2,57.7,85.1"/>
	<path class="st0" d="M54.3,89.2v3.6v7.8v3.7h2.9v-3.7V89.1h-2.1L54.3,89.2z"/>
	<path class="st0" d="M36.9,98.7l-6.2-14.4c-1.9-4.4-4.6-6.3-6.8-6.8c-1-0.4-3.7-0.1-3.7-0.1s2,0.1,3.2,1c1.7,1.1,2.6,3.4,2.1,6.8
		l-1.9,14.4c-0.2,1.8-0.8,4.6-0.8,4.6h2.9c0,0,0.1-2.3,0.5-4.2l1.9-14l6.2,14.7c0.8,1.8,1.2,2.7,2.9,3.9l7.4-18.8l1.9,15.8
		c0.1,1.1,0.2,2.5,0.2,2.5h3.7c0,0-0.4-1.9-0.5-3.4l-2.4-15.9c-0.1-0.7-0.1-2-0.1-2h-4.5c0,0.7-0.2,1.3-0.5,2L36.9,98.7z"/>
	<path class="st0" d="M133.9,118.2c0.4,0.2,0.8,0.4,1.3,0.4c1.8,0,2.9-1.1,2.9-2.9c0-1.5-1-2.6-2.3-2.6c-0.4,0-0.8,0.1-1.4,0.4
		l0.8-1.4c0.4,0,0.6-0.1,0.8-0.1c2.1,0,3.6,1.4,3.6,3.7c0,2.5-1.8,4.2-4.6,4.2c-0.6,0-1.4-0.1-2.5-0.2v-10.9h1.4V118.2z"/>
	<path class="st0" d="M146.8,113.6v-1.7c-1-0.1-1.5-0.2-1.9-0.2c-2.4,0-4.3,1.8-4.3,4s1.8,3.9,4.4,3.9c0.7,0,1.3-0.1,1.9-0.5
		l0.5-1.3c-0.7,0.4-1.4,0.6-2.1,0.6c-1.7,0-3-1.2-3-3c0-1.5,1-2.6,2.5-2.6C145.4,112.8,146,113.1,146.8,113.6"/>
	<path class="st0" d="M150.5,122.6h-1.4v-10.7h1.4v1.1c0.7-0.8,1.7-1.3,2.7-1.3c2,0,3.7,1.7,3.7,3.8c0,1.4-0.6,2.6-1.5,3.3
		c-0.7,0.5-1.4,0.7-2.3,0.7c-0.4,0-0.7,0-1.2-0.1l-1-1.3c0.6,0.2,1.2,0.5,1.7,0.5c1.7,0,2.7-1.1,2.7-2.9c0-1.7-1.1-2.9-2.5-2.9
		c-0.6,0-1.2,0.2-1.7,0.6c-0.6,0.6-0.6,1.3-0.6,2.4v6.8L150.5,122.6z"/>
	<path class="st0" d="M62,82.6v3.7v14.4v3.7H65v-3.7V82.6h-2.3H62z"/>
	<path class="st0" d="M69.4,82.6v3.7v14.4v3.7h3.1v-3.7V82.6h-2.3H69.4z"/>
	<path class="st0" d="M79.5,94.2c0.4-2,2-3.4,4.3-3.4c2.4,0,3.9,1.1,4.3,3.4H79.5z M91.4,96.1c0.1-4.3-3-7.5-7.4-7.5
		c-4.9,0-8.2,3.3-8.2,7.8c0,4.6,3.8,8.1,9.4,8.1c1.5,0,3.1-0.2,4.5-0.8l1.7-3.1h-0.1c-1.5,1.2-3.4,1.8-5.4,1.8
		c-3.7,0-6.5-2.4-6.5-6.3H91.4z"/>
	<path class="st0" d="M132.5,85.1c0-1.1-0.8-2-1.9-2c-1.1,0-2,0.8-2,1.9c0,1.2,0.8,2.1,2,2.1C131.6,87.3,132.5,86.2,132.5,85.1"/>
	<path class="st0" d="M129.2,89.2v3.6v7.8v3.7h2.9v-3.7V89.1h-2.9V89.2z"/>
	<path class="st0" d="M94.2,89.2v3.7v7.8v3.7h3v-3.6V95c0-1.9,0.5-3.9,3.4-3.9c3,0,3.9,1.8,3.9,5.4v4.4v3.6h3.2v-3.6v-4.8
		c0-1.5,0.1-3.6-0.8-4.9c-1.1-1.5-3.2-2.3-5-2.3c-2.1,0-3.4,1-4.6,2.5v-2.1H95h-0.8L94.2,89.2z"/>
	<path class="st0" d="M146.6,89.2v3.7V98c0,2.5-1.5,4.3-3.8,4.3c-2.9,0-3.7-1.9-3.7-4.9v-8.2H137h-1v3.7V98c0,4.6,1.9,6.9,5.7,6.9
		c2.3,0,3.6-0.7,4.8-2.6v2.1h3v-3.6V89.3h-2.6h-0.2V89.2z"/>
	<path class="st0" d="M111.3,89.2v3.7v11.5h3v-3.6V95c0-1.9,0.5-3.9,3.4-3.9c3,0,3.9,1.8,3.9,5.4v4.4v3.6h3v-3.6v-4.8
		c0-1.5,0.1-3.6-0.8-4.9c-1.1-1.5-3.2-2.3-5-2.3c-2.1,0-3.4,1-4.6,2.5v-2.1h-2.3h-0.6L111.3,89.2z"/>
	<path class="st0" d="M153.7,89.2v3.6v7.8v3.7h3v-8.7c0-3.2,1.2-4.8,3.7-4.8c2,0,3.8,1.8,3.8,5.2v4.5v3.7h3v-3.7v-4.8
		c0-3.1,0.8-5,3.8-5c2.6,0,3.7,2.1,3.7,5.5v4.3v3.7h3.1v-3.7v-5.1c0-4.2-1.2-6.9-5.9-6.9c-2.5,0-4,1.1-5.2,2.9
		c-1.2-1.9-2.9-2.9-5.1-2.9s-3.4,0.8-4.6,2.6v-2.1h-2.1h-1L153.7,89.2z"/>
	<line class="st1" x1="2.5" y1="108.1" x2="197.5" y2="108.1"/>
</g>
</svg>
